<svg class="lds-spinner" width="200px"  height="200px"  xmlns="http://www.w3.org/2000/svg" xmlns:xlink="http://www.w3.org/1999/xlink" viewBox="0 0 100 100" preserveAspectRatio="xMidYMid" style="background: none;"><g transform="rotate(0 50 50)">
  <rect x="47" y="24" rx="9.4" ry="4.8" width="6" height="12" fill="#28292f">
    <animate attributeName="opacity" values="1;0" times="0;1" dur="0.4s" begin="-0.3666666666666667s" repeatCount="indefinite"></animate>
  </rect>
</g><g transform="rotate(30 50 50)">
  <rect x="47" y="24" rx="9.4" ry="4.8" width="6" height="12" fill="#28292f">
    <animate attributeName="opacity" values="1;0" times="0;1" dur="0.4s" begin="-0.3333333333333333s" repeatCount="indefinite"></animate>
  </rect>
</g><g transform="rotate(60 50 50)">
  <rect x="47" y="24" rx="9.4" ry="4.8" width="6" height="12" fill="#28292f">
    <animate attributeName="opacity" values="1;0" times="0;1" dur="0.4s" begin="-0.3s" repeatCount="indefinite"></animate>
  </rect>
</g><g transform="rotate(90 50 50)">
  <rect x="47" y="24" rx="9.4" ry="4.8" width="6" height="12" fill="#28292f">
    <animate attributeName="opacity" values="1;0" times="0;1" dur="0.4s" begin="-0.26666666666666666s" repeatCount="indefinite"></animate>
  </rect>
</g><g transform="rotate(120 50 50)">
  <rect x="47" y="24" rx="9.4" ry="4.8" width="6" height="12" fill="#28292f">
    <animate attributeName="opacity" values="1;0" times="0;1" dur="0.4s" begin="-0.23333333333333336s" repeatCount="indefinite"></animate>
  </rect>
</g><g transform="rotate(150 50 50)">
  <rect x="47" y="24" rx="9.4" ry="4.8" width="6" height="12" fill="#28292f">
    <animate attributeName="opacity" values="1;0" times="0;1" dur="0.4s" begin="-0.20000000000000004s" repeatCount="indefinite"></animate>
  </rect>
</g><g transform="rotate(180 50 50)">
  <rect x="47" y="24" rx="9.4" ry="4.8" width="6" height="12" fill="#28292f">
    <animate attributeName="opacity" values="1;0" times="0;1" dur="0.4s" begin="-0.16666666666666666s" repeatCount="indefinite"></animate>
  </rect>
</g><g transform="rotate(210 50 50)">
  <rect x="47" y="24" rx="9.4" ry="4.8" width="6" height="12" fill="#28292f">
    <animate attributeName="opacity" values="1;0" times="0;1" dur="0.4s" begin="-0.13333333333333333s" repeatCount="indefinite"></animate>
  </rect>
</g><g transform="rotate(240 50 50)">
  <rect x="47" y="24" rx="9.4" ry="4.8" width="6" height="12" fill="#28292f">
    <animate attributeName="opacity" values="1;0" times="0;1" dur="0.4s" begin="-0.10000000000000002s" repeatCount="indefinite"></animate>
  </rect>
</g><g transform="rotate(270 50 50)">
  <rect x="47" y="24" rx="9.4" ry="4.8" width="6" height="12" fill="#28292f">
    <animate attributeName="opacity" values="1;0" times="0;1" dur="0.4s" begin="-0.06666666666666667s" repeatCount="indefinite"></animate>
  </rect>
</g><g transform="rotate(300 50 50)">
  <rect x="47" y="24" rx="9.4" ry="4.8" width="6" height="12" fill="#28292f">
    <animate attributeName="opacity" values="1;0" times="0;1" dur="0.4s" begin="-0.03333333333333333s" repeatCount="indefinite"></animate>
  </rect>
</g><g transform="rotate(330 50 50)">
  <rect x="47" y="24" rx="9.4" ry="4.8" width="6" height="12" fill="#28292f">
    <animate attributeName="opacity" values="1;0" times="0;1" dur="0.4s" begin="0s" repeatCount="indefinite"></animate>
  </rect>
</g></svg>